<?xml version="1.0" encoding="UTF-8"?>
<svg id="Layer_1" data-name="Layer 1" xmlns="http://www.w3.org/2000/svg" viewBox="0 0 942.86 942.86">
  <defs>
    <style>
      .cls-1, .cls-2, .cls-3 {
        stroke: #fff;
        stroke-linecap: round;
      }

      .cls-1, .cls-3 {
        stroke-linejoin: round;
        stroke-width: 23px;
      }

      .cls-1, .cls-4 {
        fill: none;
      }

      .cls-2 {
        stroke-miterlimit: 10;
      }

      .cls-2, .cls-3 {
        fill: #fff;
      }
    </style>
  </defs>
  <circle class="cls-4" cx="471.43" cy="471.43" r="471.43"/>
  <path class="cls-1" d="m206.97,768.56c-81.4-71.58-132.52-176.55-132.52-294.38,0-217.94,174.86-396.42,392.8-396.42,152.05,0,275.14,88.7,338.49,200.92"/>
  <path class="cls-3" d="m856.42,469.65c0,57.92-11.77,111.32-31.68,154.77"/>
  <path class="cls-2" d="m340.3,845.82c7.64,2.55,17.82,6.79,39.03,12.73,21.21,5.94,41.58,7.64,41.58,7.64,0,0,65.34-138.31,72.98-162.92,7.64-24.61,14.43-61.1,16.12-80.61,1.7-19.52,1.7-33.94,1.7-33.94,0,0,18.07,34.93,22.06,50.91.85,3.39,8.49,41.58,9.33,47.52s2.55,21.21,2.55,21.21c0,0,7.64-41.58,5.94-55.16-1.7-13.58-11.03-62.79-26.3-89.1s-48.37-67.04-64.49-81.46c-16.12-14.43-20.37-17.82-20.37-17.82,0,0,6.79,14.43,7.64,30.55.85,16.12.85,54.31.85,54.31,0,0-10.18-32.24-17.82-44.12s-37.34-53.46-48.37-66.19c-11.03-12.73-18.67-21.21-18.67-21.21l2.55,28s-18.67-31.4-24.61-39.88c-5.94-8.49-33.09-39.88-44.12-49.22s-30.55-24.61-40.73-30.55c-10.18-5.94-25.46-13.58-25.46-13.58l6.79-16.97,124.74,34.79s51.76-14.43,67.04-16.12c15.27-1.7,30.55-3.39,36.49-2.55s48.37,11.88,69.58,20.37c21.21,8.49,101.83,43.28,101.83,43.28,0,0-35.64,5.94-44.97,6.79s-20.37.85-24.61,0-5.94-1.7-5.94-1.7c0,0-.85,18.67,5.09,23.76,5.94,5.09,10.18,10.18,21.21,11.03,11.03.85,145.1-23.76,145.1-23.76l-131.52,66.19s9.33-1.7,19.52,1.7c10.18,3.39,53.46,16.97,61.1,21.21,7.64,4.24,58.55,28,58.55,28,0,0-32.57,15.32-44.97,18.67-13.72,3.18-81.46,7.64-81.46,7.64l30.55,11.03s-14.43,3.39-28,2.55-28-2.55-28-2.55c0,0,33.09,16.12,51.76,18.67s47.52,2.55,47.52,2.55c0,0-1.7,8.49-5.94,12.73-4.24,4.24-13.58,12.73-13.58,12.73,0,0,9.33.85,15.27-1.7s13.58-5.94,13.58-5.94c0,0-35.64,38.18-52.61,89.1-16.97,50.91-10.18,131.52-10.18,131.52,0,0,20.37-61.1,33.94-89.95,13.58-28.85,37.34-59.4,37.34-59.4,0,0-.27,29.37,3.39,48.37,3.72,19.29,3.71,25.84,11.88,39.88,6.54,11.24,11.03,16.12,11.03,16.12,0,0,23.76-23.76,33.94-36.49,10.18-12.73,28.85-42.43,28.85-42.43,0,0-15.27-11.88-16.12-12.73,0,0-4.24-5.09-5.09-8.49s0-5.94,0-5.94c0,0,6.79,4.24,9.33,5.09s8.49,2.55,8.49,2.55c0,0-11.03-14.43-14.43-21.21-3.39-6.79-21.21-44.12-19.52-60.25,1.7-16.12,11.03-22.91,18.67-34.79,7.64-11.88,87.4-160.38,89.95-167.16s3.39-21.39,0-25.54-6.79-13.49-55.16-6.7c-48.37,6.79-107.77,14.43-107.77,14.43l20.7-55.21c4.46-11.9-5.35-24.26-17.95-22.62l-180.1,23.52s-42.43-16.83-80.19-13.51c-37.76,3.32-78.49,17.75-84.43,17.75s-136.62-39.88-142.56-40.73c-5.94-.85-41.58,10.18-51.76,44.12-10.18,33.94-10.18,56.85,4.24,68.73,6.87,5.66,11.04,8.81,13.53,10.57,2.83,2,5.49,4.22,7.94,6.67l15.01,15.01s-39.03-28-53.46-10.18c-14.43,17.82-9.33,33.94-1.7,66.19,11.67,49.27,50.06,76.37,68.73,87.4,18.67,11.03,26.8,17.38,35.64,24.61,9.33,7.64,25.46,36.49,30.55,56.85,4.4,17.6.85,55.16-8.49,75.52-9.33,20.37-28,56.85-28,56.85-.85,1.7-9.33,18.67-9.33,18.67,0,0,1.7,2.55,6.79,5.94s11.88,8.49,11.88,8.49l9.33-20.37s28.85-60.25,33.94-79.76,9.33-39.88,7.64-50.91-21.21-53.46-21.21-53.46l39.03,16.97s-18.67-26.3-26.3-33.94c-7.64-7.64-72.98-38.18-91.64-56s-32.72-36.93-38.18-57.7c-4.32-16.4-7.75-35.44-7.81-46.94-.02-3.41,3.55-5.65,6.6-4.12l89.46,45.12-33.09-56s-25.46-26.3-29.7-28.85-11.88-7.64-15.27-12.73-3.39-12.69-3.39-21.21c0-4.24,5.94-27.15,7.64-31.4,1.7-4.24,1.7-3.39,1.7-3.39l20.37,6.79s-2.55,3.39-2.55,4.24,0,4.24,1.7,5.94,5.94,2.55,6.79,2.55,5.09,0,5.94-1.7,1.7-1.7,1.7-1.7l28.85,22.06s-19.52-2.55-23.76-3.39-19.52-3.39-19.52-3.39c0,0,15.4,12.75,28,17.82,17.63,7.09,38.18,11.88,38.18,11.88,0,0,39.03,46.67,45.82,56.85,6.79,10.18,42.43,73.82,42.43,73.82l4.24-21.21s29.7,29.7,39.88,61.94c10.18,32.24,16.97,58.55,19.52,79.76,0,4.24.85,16.12.85,16.12,0,0,18.67-16.97,24.61-27.15,5.94-10.18,17.82-36.49,20.37-52.61.85-4.24,3.39-14.43,3.39-14.43,0,0,1.7,11.03,1.7,16.12s.85,23.76.85,31.4-7.64,65.34-12.73,81.46c-5.09,16.12-14.43,39.88-16.12,41.58,0,0,1.7-11.88,0-31.4-.93-10.69-7.64-20.37-7.64-20.37,0,0-22.06,65.34-44.12,100.13-30.01,47.32-58.55,81.46-58.55,81.46Z"/>
  <path class="cls-2" d="m390.36,346.02s25.46,4.24,35.64,5.09,24.61-1.7,35.64,2.55c11.03,4.24,27.15,15.27,36.49,28.85,9.33,13.58,21.21,28,24.61,29.7s14.43,11.03,14.43,11.03c0,0-9.33,2.55-15.27,1.7s-14.43-5.09-14.43-5.09c0,0-20.37,2.55-34.79.85s-27.15-8.49-27.15-8.49l.85,7.64s-9.33-10.18-13.58-16.12-10.18-16.97-12.73-23.76-4.24-16.12-4.24-16.12c0,0-10.18-4.24-14.43-7.64s-11.03-10.18-11.03-10.18Zm61.94,44.97c5.09,9.33,17.24,13.58,17.24,13.58,7.05,1.7,16.71,0,16.71,0,0,0-1.7-1.7-3.39-2.55s-7.64-9.33-13.81-16.46c-6.18-7.13-10.79-10.69-13.34-11.54s-4.24-.85-5.94-.85-5.94-.85-5.94-.85c0,0,3.39,9.33,8.49,18.67Z"/>
</svg>